<?xml version="1.0" encoding="UTF-8" standalone="no"?>
<!DOCTYPE svg PUBLIC "-//W3C//DTD SVG 1.1//EN" "http://www.w3.org/Graphics/SVG/1.1/DTD/svg11.dtd">
<svg width="100%" height="100%" viewBox="0 0 626 774" version="1.1" xmlns="http://www.w3.org/2000/svg" xmlns:xlink="http://www.w3.org/1999/xlink" xml:space="preserve" xmlns:serif="http://www.serif.com/" style="fill-rule:evenodd;clip-rule:evenodd;stroke-linejoin:round;stroke-miterlimit:2;">
    <g transform="matrix(18.7432,0,0,18.7432,-523.058,-16.6354)">
        <path d="M27.907,26.263C28.143,24.255 29.853,23.644 30.51,21.766C31.989,17.547 33.536,12.065 38.499,11.647C42.804,11.285 46.114,18.297 46.269,20.704" style="fill:rgb(255,8,0);"/>
        <path d="M43.914,24.141L49.374,21.553L61.231,20.771C56.596,22.793 54.56,24.744 52.176,26.175C50.874,26.957 47.438,26.469 46.145,25.919" style="fill:rgb(147,73,55);"/>
        <path d="M33.358,24.754L37.467,23.743L47.922,25.487C47.383,28.654 46.443,34.187 46.585,37.22C46.768,41.132 46.802,42.424 46.139,42.146C42.525,40.635 38.206,35.972 35.282,32.266" style="fill:rgb(255,247,82);"/>
        <clipPath id="_clip1">
            <path d="M33.358,24.754L37.467,23.743L47.922,25.487C47.383,28.654 46.443,34.187 46.585,37.22C46.768,41.132 46.802,42.424 46.139,42.146C42.525,40.635 38.206,35.972 35.282,32.266"/>
        </clipPath>
        <g clip-path="url(#_clip1)">
            <path d="M43.6,21.343L43.875,30.283C46.057,30.917 47.599,29.129 49.287,27.789L50.722,20.771L43.6,21.343Z" style="fill:rgb(255,152,82);"/>
        </g>
        <path d="M37.467,26.47C35.161,26.605 40.2,34.968 43.039,38.061" style="fill:rgb(255,152,82);"/>
        <path d="M37.467,26.47C39.247,33.527 42.035,37.894 45.617,40.282C45.691,34.495 45.504,29.033 46.702,26.47L37.467,26.47Z" style="fill:rgb(255,107,140);"/>
        <g transform="matrix(1,0,0,1,0.34705,-0.563957)">
            <g transform="matrix(1.0402,0,0,1.03343,2.01974,-0.750564)">
                <path d="M38.377,15.224C40.611,15.039 41.442,17.13 41.442,19.136C41.442,21.141 40.627,21.872 38.76,21.872C37.848,21.872 36.545,20.671 36.545,18.665C36.545,16.66 37.384,15.306 38.377,15.224Z" style="fill:white;"/>
            </g>
            <g transform="matrix(1.0402,0,0,1.03343,-1.44414,-0.706384)">
                <path d="M38.038,15.181C39.905,15.181 41.442,17.13 41.442,19.136C41.442,21.141 40.244,22.547 38.377,22.547C36.51,22.547 34.728,21.521 34.655,18.815C34.6,16.81 35.767,15.181 38.038,15.181Z" style="fill:white;"/>
            </g>
            <g transform="matrix(0.763712,0,0,0.933729,13.3761,0.911446)">
                <path d="M38.239,17.388C39.269,17.373 40.106,18.427 40.106,19.707C40.106,20.987 39.27,22.027 38.239,22.027C37.209,22.027 36.373,20.987 36.373,19.707C36.373,18.427 36.826,17.407 38.239,17.388Z" style="fill:rgb(20,219,51);"/>
                <clipPath id="_clip2">
                    <path d="M38.239,17.388C39.269,17.373 40.106,18.427 40.106,19.707C40.106,20.987 39.27,22.027 38.239,22.027C37.209,22.027 36.373,20.987 36.373,19.707C36.373,18.427 36.826,17.407 38.239,17.388Z"/>
                </clipPath>
                <g clip-path="url(#_clip2)">
                    <g transform="matrix(1.07989,0,0,0.943665,-2.82912,-0.546845)">
                        <path d="M38.239,17.388C39.269,17.373 40.106,18.427 40.106,19.707C40.106,20.987 39.27,22.027 38.239,22.027C37.209,22.027 36.373,20.987 36.373,19.707C36.373,18.427 36.826,17.407 38.239,17.388Z" style="fill:rgb(12,133,22);"/>
                    </g>
                </g>
            </g>
            <g transform="matrix(0.763712,0,0,0.933729,13.3761,0.911446)">
                <path d="M39.038,21.804C38.795,21.947 38.525,22.027 38.239,22.027C37.209,22.027 36.373,20.987 36.373,19.707C36.373,18.427 36.826,17.407 38.239,17.388C39.269,17.373 40.106,18.427 40.106,19.707C40.106,19.793 40.102,19.878 40.095,19.961C40.075,20.177 40.032,20.391 39.964,20.595C39.929,20.699 39.889,20.799 39.842,20.895C40.203,20.141 40.208,19.154 39.751,18.365C39.566,18.046 39.333,17.813 39.097,17.661C38.696,17.403 38.343,17.409 38.24,17.41L38.386,17.673C37.862,17.663 36.964,17.751 36.767,19.414C36.741,19.629 36.582,20.489 37.094,21.246C37.656,22.075 38.427,22.165 39.048,21.798C39.045,21.8 39.041,21.802 39.038,21.804ZM39.515,21.4C39.388,21.547 39.245,21.673 39.089,21.773C39.075,21.781 39.062,21.79 39.048,21.798C39.227,21.688 39.382,21.553 39.515,21.4Z" style="fill:rgb(12,133,22);"/>
            </g>
            <g transform="matrix(0.399715,0,0,0.412466,27.3537,11.0962)">
                <path d="M38.239,17.388C39.269,17.373 40.106,18.427 40.106,19.707C40.106,20.987 39.27,22.027 38.239,22.027C37.209,22.027 36.373,20.987 36.373,19.707C36.373,18.427 36.826,17.407 38.239,17.388Z"/>
            </g>
            <g transform="matrix(0.240395,0.0616877,-0.0641565,0.250016,34.2748,11.2529)">
                <path d="M38.239,17.388C39.269,17.373 40.106,18.427 40.106,19.707C40.106,20.987 39.27,22.027 38.239,22.027C37.209,22.027 36.373,20.987 36.373,19.707C36.373,18.427 36.826,17.407 38.239,17.388Z" style="fill:white;"/>
            </g>
            <g transform="matrix(0.944849,0,0,0.933729,1.79968,1.16243)">
                <ellipse cx="38.239" cy="19.707" rx="1.867" ry="2.319" style="fill:rgb(20,219,51);"/>
                <clipPath id="_clip3">
                    <ellipse cx="38.239" cy="19.707" rx="1.867" ry="2.319"/>
                </clipPath>
                <g clip-path="url(#_clip3)">
                    <g transform="matrix(0.942334,0,0,1,2.31274,-1.38757)">
                        <ellipse cx="38.239" cy="19.707" rx="1.867" ry="2.319" style="fill:rgb(12,133,22);"/>
                    </g>
                </g>
            </g>
            <g transform="matrix(0.944849,0,0,0.933729,1.79968,1.16243)">
                <path d="M39.028,21.81C39.021,21.814 39.013,21.818 39.004,21.823C39.071,21.785 39.12,21.752 39.148,21.733C39.109,21.761 39.069,21.786 39.028,21.81ZM38.239,17.388C38.343,17.388 38.444,17.398 38.543,17.418C38.568,17.424 38.594,17.43 38.62,17.437C38.503,17.407 38.376,17.389 38.239,17.388ZM39.004,21.823C38.771,21.954 38.512,22.027 38.239,22.027C37.209,22.027 36.373,20.987 36.373,19.707C36.373,18.427 37.209,17.388 38.239,17.388L38.24,17.673C37.454,17.643 37.06,18.287 36.829,18.962C36.365,20.317 36.923,21.898 38.18,21.998C38.598,22.031 38.906,21.878 39.004,21.823ZM38.62,17.437C38.652,17.445 38.683,17.454 38.714,17.464C38.872,17.515 39.021,17.592 39.16,17.69C38.966,17.553 38.776,17.478 38.62,17.437ZM39.376,17.868C39.47,17.958 39.557,18.058 39.636,18.169C39.687,18.24 39.735,18.316 39.778,18.395C39.71,18.272 39.579,18.063 39.376,17.868ZM40.091,19.409C40.101,19.507 40.106,19.606 40.106,19.707C40.106,19.733 40.106,19.759 40.105,19.785C40.1,19.962 40.078,20.138 40.041,20.309C40.104,20.017 40.121,19.711 40.091,19.409ZM40.041,20.309C39.998,20.508 39.934,20.702 39.849,20.882C39.822,20.939 39.793,20.995 39.762,21.048C39.89,20.823 39.984,20.572 40.041,20.309Z" style="fill:rgb(12,133,22);"/>
            </g>
            <g transform="matrix(0.455702,0,0,0.450339,20.5043,10.6887)">
                <ellipse cx="38.239" cy="19.707" rx="1.867" ry="2.319"/>
            </g>
            <g transform="matrix(0.240395,0.0616877,-0.0714623,0.278486,29.3898,11.0009)">
                <path d="M38.239,17.388C39.269,17.373 40.106,18.427 40.106,19.707C40.106,20.987 39.27,22.027 38.239,22.027C37.209,22.027 36.373,20.987 36.373,19.707C36.373,18.427 36.826,17.407 38.239,17.388Z" style="fill:white;"/>
            </g>
            <g transform="matrix(0.240395,0.0616877,-0.0641565,0.250016,35.9349,12.8745)">
                <path d="M38.239,17.388C39.269,17.373 40.106,18.427 40.106,19.707C40.106,20.987 39.27,22.027 38.239,22.027C37.209,22.027 36.373,20.987 36.373,19.707C36.373,18.427 36.826,17.407 38.239,17.388Z" style="fill:white;"/>
            </g>
            <g transform="matrix(0.240395,0.0616877,-0.0714623,0.278486,31.4342,12.886)">
                <path d="M38.239,17.388C39.269,17.373 40.106,18.427 40.106,19.707C40.106,20.987 39.27,22.027 38.239,22.027C37.209,22.027 36.373,20.987 36.373,19.707C36.373,18.427 36.826,17.407 38.239,17.388Z" style="fill:white;"/>
            </g>
        </g>
        <path d="M34.949,26.47C45.991,30.923 49.398,22.609 61.231,20.771C56.331,18.491 47.094,19.43 40.335,20.771C34.477,21.934 29.498,23.59 28.13,25.595C26.823,27.513 31.911,30.95 36.88,32.959" style="fill:rgb(255,247,82);"/>
        <clipPath id="_clip4">
            <path d="M34.949,26.47C45.991,30.923 49.398,22.609 61.231,20.771C56.331,18.491 47.094,19.43 40.335,20.771C34.477,21.934 29.498,23.59 28.13,25.595C26.823,27.513 31.911,30.95 36.88,32.959"/>
        </clipPath>
        <g clip-path="url(#_clip4)">
            <path d="M62.518,20.767L57.185,19.666C55.674,19.774 54.3,23.016 56.708,23.584" style="fill:rgb(247,132,16);"/>
        </g>
        <g>
            <g transform="matrix(0.970003,-0.154382,0.15857,1.02858,0.0314522,6.52731)">
                <path d="M36.982,11.628C36.695,7.2 36.995,2.859 40.066,0.878C40.807,0.628 41.65,0.686 42.38,0.969C39.087,3.153 39.139,8.22 39.064,11.626L38.091,11.715L37.004,11.962C37.001,11.913 36.997,11.864 36.994,11.814L36.97,11.817C36.973,11.754 36.977,11.691 36.982,11.628Z" style="fill:url(#_Radial5);"/>
            </g>
            <g transform="matrix(0.978973,0.0797037,-0.0925252,1.07184,2.61052,-2.90073)">
                <path d="M36.982,11.628C36.695,7.2 36.995,2.859 40.066,0.878C40.915,0.615 41.659,0.75 42.38,0.969C39.087,3.153 39.139,8.22 39.064,11.626L38.091,11.715L37.004,11.962C37.001,11.913 36.997,11.864 36.994,11.814L36.97,11.817C36.973,11.754 36.977,11.691 36.982,11.628Z" style="fill:url(#_Radial6);"/>
            </g>
            <g transform="matrix(0.932256,0.309256,-0.344847,1.02284,7.32634,-11.0721)">
                <path d="M36.982,11.628C36.695,7.2 36.995,2.859 40.066,0.878C40.558,0.663 41.699,0.839 42.424,1.166C39.132,3.351 39.139,8.22 39.064,11.626L38.091,11.715L37.004,11.962C37.001,11.913 36.997,11.864 36.994,11.814L36.97,11.817C36.973,11.754 36.977,11.691 36.982,11.628Z" style="fill:url(#_Radial7);"/>
            </g>
            <g transform="matrix(0.83251,0.521217,-0.556563,0.879409,13.5819,-17.463)">
                <path d="M36.982,11.628C36.695,7.2 36.741,3.068 39.813,1.087C40.656,1.113 41.659,1.428 42.132,1.96C38.866,3.835 38.481,9.299 39.456,10.905L38.091,11.715L37.004,11.962C37.001,11.913 36.997,11.864 36.994,11.814L36.97,11.817C36.973,11.754 36.977,11.691 36.982,11.628Z" style="fill:url(#_Radial8);"/>
            </g>
        </g>
    </g>
    <defs>
        <radialGradient id="_Radial5" cx="0" cy="0" r="1" gradientUnits="userSpaceOnUse" gradientTransform="matrix(4.36904,-9.3704,9.9501,4.16909,36.9827,11.4974)"><stop offset="0" style="stop-color:rgb(255,8,0);stop-opacity:1"/><stop offset="0.52" style="stop-color:rgb(249,29,0);stop-opacity:1"/><stop offset="1" style="stop-color:rgb(231,99,0);stop-opacity:1"/></radialGradient>
        <radialGradient id="_Radial6" cx="0" cy="0" r="1" gradientUnits="userSpaceOnUse" gradientTransform="matrix(4.36904,-9.3704,9.9501,4.16909,36.9827,11.4974)"><stop offset="0" style="stop-color:rgb(255,8,0);stop-opacity:1"/><stop offset="0.52" style="stop-color:rgb(249,29,0);stop-opacity:1"/><stop offset="1" style="stop-color:rgb(231,99,0);stop-opacity:1"/></radialGradient>
        <radialGradient id="_Radial7" cx="0" cy="0" r="1" gradientUnits="userSpaceOnUse" gradientTransform="matrix(4.36904,-9.3704,9.9501,4.16909,36.9827,11.4974)"><stop offset="0" style="stop-color:rgb(255,8,0);stop-opacity:1"/><stop offset="0.52" style="stop-color:rgb(249,29,0);stop-opacity:1"/><stop offset="1" style="stop-color:rgb(231,99,0);stop-opacity:1"/></radialGradient>
        <radialGradient id="_Radial8" cx="0" cy="0" r="1" gradientUnits="userSpaceOnUse" gradientTransform="matrix(4.36904,-9.3704,9.9501,4.16909,36.9827,11.4974)"><stop offset="0" style="stop-color:rgb(255,8,0);stop-opacity:1"/><stop offset="0.52" style="stop-color:rgb(249,29,0);stop-opacity:1"/><stop offset="1" style="stop-color:rgb(231,99,0);stop-opacity:1"/></radialGradient>
    </defs>
</svg>
